<?xml version="1.0" standalone="no"?>
<!DOCTYPE svg PUBLIC "-//W3C//DTD SVG 1.1//EN" "http://www.w3.org/Graphics/SVG/1.1/DTD/svg11.dtd" >
<svg xmlns="http://www.w3.org/2000/svg">
<metadata></metadata>
<defs>
<font id="brush_of_kentregular" horiz-adv-x="1014" >
<font-face units-per-em="2048" ascent="1638" descent="-410" />
<missing-glyph horiz-adv-x="508" />
<glyph horiz-adv-x="0" />
<glyph unicode="&#xd;" horiz-adv-x="508" />
<glyph unicode=" "  horiz-adv-x="508" />
<glyph unicode="&#x09;" horiz-adv-x="508" />
<glyph unicode="&#xa0;" horiz-adv-x="508" />
<glyph unicode="!" horiz-adv-x="674" d="M174 56v85q0 162 112 162q141 0 141 -64q-7 -77 -7 -134v-7q0 -16 7 -28q-14 -23 -14 -42q0 -12 14 -35q-12 -64 -55 -64q-6 0 -43 7q-71 -8 -71 -27q-72 -71 -84 147zM195 1348v14q14 59 28 208l-7 29q0 52 237 97h34q129 -24 129 -49q0 -75 -74 -118q-48 -147 -48 -264 l7 -28l-35 -174q7 -50 7 -55q-23 -53 -40 -146q-7 0 -14 -22h7q-11 -48 -34 -48l7 -62q0 -24 -20 -56v-98q0 -52 -123 -90q-29 0 -40 76q0 39 27 251q-14 26 -14 76v132q0 49 -13 49q13 25 13 56z" />
<glyph unicode="&#x22;" horiz-adv-x="672" d="M59 1319q0 94 144 340l52 38h46q53 -26 53 -38v-38q-96 -95 -151 -287v-15q32 -71 60 -196q0 -23 -45 -46q-98 0 -136 129zM414 1357q0 221 113 287q83 -25 83 -76v-15q-23 -28 -45 -113q0 -15 7 -15l-7 -38v-83l22 -76v-15q-15 -53 -15 -60q8 -40 8 -45l-8 -16 q15 -24 15 -45v-7q-15 0 -15 -8q-26 2 -68 68q-34 0 -83 189q-7 28 -7 68z" />
<glyph unicode="#" horiz-adv-x="1519" d="M1 770v8q0 42 153 92q201 41 215 46q78 545 154 545q28 0 69 -107q-15 -28 -15 -62q57 -9 61 -30v-31q-58 -40 -84 -207q-16 -58 -16 -69l23 -16h8q246 18 246 77q53 350 84 438l54 -8l38 8l15 -46q-53 -342 -53 -392q25 -15 46 -15h53q99 0 215 7l85 -15v-31 q0 -17 -108 -53q-20 -85 -61 -85q-60 25 -215 39h-8q-15 -3 -15 -16q31 -80 31 -100q-46 -20 -46 -53v-54l7 -38q83 0 208 15q64 -15 168 -15h31q54 0 54 -62q96 -53 115 -53v-8q0 -16 -15 -16h-46q-248 -15 -269 -15h-15q-18 0 -31 -8q-47 16 -138 16q-77 0 -77 -62 l-15 -99l7 -39q-15 -61 -15 -92q8 -68 8 -84q-16 -46 -31 -46q-36 36 -100 53l-8 46l24 146q-8 51 -8 100v31q0 11 -46 38q-251 -31 -269 -54l-23 -153q8 -30 8 -61q-16 -85 -16 -93l8 -15q-17 -69 -31 -69l-61 46q0 26 8 38l-16 200l8 54q-8 30 -8 53q-245 -7 -284 -7 l-30 7v23q98 85 176 85q18 20 138 38q8 77 8 115v108l-8 15q-194 -8 -299 -38q-46 18 -46 30zM477 594q8 -31 38 -31q138 5 138 16q15 -8 23 -8q91 15 116 15v8q7 65 7 107v146h-15q-276 -14 -276 -92q-20 -149 -31 -161z" />
<glyph unicode="$" horiz-adv-x="1139" d="M0 425q34 50 77 50q92 -38 92 -113q50 -48 99 -169q35 -21 56 -21q91 243 127 500v14q-85 103 -85 211q63 225 141 282q46 34 141 56h21q78 219 155 331h28q18 0 35 -56q-68 -102 -112 -254v-14q0 -21 28 -21l28 14l49 -7q19 0 85 155q92 185 140 246h15q35 -2 35 -14 q-120 -237 -120 -253v-21l14 -22v-21q-77 0 -77 -91v-7q84 -62 84 -113q0 -54 78 -141q-83 -93 -120 -105q-47 0 -113 140h-14q-12 0 -84 -302q-7 0 -7 -14q0 -25 133 -92q0 -16 29 -70q-28 -213 -43 -233q0 -75 -133 -162q-162 -66 -162 -98q-23 -223 -71 -317h-28 q-19 52 -28 176l21 106q-7 13 -7 21h-63q-64 0 -64 -78q-28 -79 -28 -119l7 -36q-8 0 -49 -49h-14q-31 0 -35 127l14 162q-126 36 -198 141q-77 166 -77 281zM437 151h7q140 16 140 105q50 240 64 282q0 35 -92 35q-91 -189 -119 -394v-28zM507 974q14 -52 14 -63h7 q14 0 56 169h-14q-63 -41 -63 -106zM620 763q0 -10 49 -49h14q79 114 113 232q35 106 35 120q-53 42 -85 42h-21q-49 -37 -105 -338v-7zM697 284h7q92 84 92 155v7q0 38 -29 50h-7q-27 0 -63 -212z" />
<glyph unicode="%" horiz-adv-x="1281" d="M7 121q235 195 301 335q322 406 367 442q295 295 443 510q39 0 84 34h33q0 -13 17 -34v-33q-78 -124 -209 -251q-346 -399 -443 -476q0 -37 -384 -510q-155 -134 -192 -134q0 9 -9 9l9 42q0 7 -17 66zM199 982v84q0 298 276 384q19 0 50 25h8q176 -31 176 -167 q0 -181 -142 -318q-49 -58 -176 -58q-55 -8 -108 -8q-56 18 -84 58zM350 1174q0 -45 41 -67h17q100 98 150 201v33l-41 9h-25q-39 -50 -117 -92q-25 -51 -25 -67v-17zM642 506q92 301 351 301h25q217 -58 217 -193v-16q0 -221 -351 -360h-75q-59 0 -108 126q-32 0 -59 142z M818 447l50 -42h50q125 101 125 193q-8 33 -92 33q-125 -27 -125 -125q-8 -33 -8 -59z" />
<glyph unicode="&#x26;" horiz-adv-x="1322" d="M6 210q0 207 287 457q-45 136 -45 162v27q0 255 251 654q85 77 197 108q18 -9 27 -9l90 9q179 -54 179 -135q9 0 9 -9l-9 -35q9 -129 45 -189q0 -50 -134 -296q-114 -170 -198 -170l-116 -90v-18q174 -134 224 -134h9q63 68 152 251l18 9q35 -18 99 -18q9 0 9 9 q13 -1 45 -36q-153 -247 -153 -296q19 -24 242 -54v-9l-36 -62l18 -9q9 0 72 18h9q18 -3 18 -18q-51 -90 -215 -90h-99q-30 0 -45 -9l-179 18l-143 -134q-211 -108 -377 -108q-251 88 -251 206zM230 390l18 -36l-9 -45q0 -91 72 -126h36q98 0 278 126v9l-251 242h-9 q-135 -126 -135 -170zM445 936q0 -125 36 -125q270 205 296 242q63 140 63 170q-29 207 -90 207q-228 0 -269 -243q0 -23 -36 -170v-81z" />
<glyph unicode="'" horiz-adv-x="346" d="M9 1293q0 105 160 380l59 42h51q59 -29 59 -42v-43q-106 -106 -169 -320v-17q36 -79 68 -219q0 -26 -51 -51q-109 0 -152 143z" />
<glyph unicode="(" horiz-adv-x="758" d="M30 820q95 452 266 582q150 120 286 197h40q108 -116 108 -197q-87 -99 -98 -148q-89 0 -296 -197l-10 -40q0 -477 89 -552l9 -59q-19 -36 -19 -79v-30q0 -205 256 -434l20 -29q-20 -71 -20 -79q30 -10 30 -59q-42 -40 -79 -40q-196 0 -474 473q-98 311 -98 346v138 q0 78 -10 207z" />
<glyph unicode=")" horiz-adv-x="793" d="M8 -292q0 32 247 405q95 171 207 592q-10 248 -10 395q0 137 -197 247q-158 178 -158 256q45 69 118 69l316 -197q145 -62 208 -207q0 -20 9 -20l-9 -50q39 -113 39 -187q0 -25 -39 -138q0 -57 19 -198q-49 -290 -158 -553q-53 -168 -355 -473q-22 0 -79 -30 q-49 0 -49 109h-10q-50 -33 -50 -40q-32 20 -49 20z" />
<glyph unicode="*" horiz-adv-x="1024" d="M101 1305h14l43 7q42 -14 276 -56l7 14q-54 62 -113 106v43q0 25 21 71h7q5 0 85 -85h15v28q0 7 -15 57q59 76 121 92q14 -26 14 -57v-92q-14 -50 -14 -57v-14h14q85 84 85 99h15q39 0 99 -78v-14q0 -19 -71 -42v-22q113 7 121 14q15 -19 28 -78v-63q0 -8 7 -8 q-10 -35 -50 -35q-19 14 -99 21l-14 -7q-31 21 -107 36v-7q0 -8 100 -100v-7q-20 -85 -78 -85q-31 134 -71 156h-14q21 -156 21 -177q0 -31 -92 -57q-40 12 -57 35v22q57 44 57 127h-7l-93 -106q-142 40 -142 64q0 14 107 85l7 14h-14q-7 0 -100 -21h-35q-78 101 -78 177z " />
<glyph unicode="+" horiz-adv-x="1266" d="M59 766q15 53 74 53q28 -21 147 -32l21 11l157 -63h64q24 0 31 84q-31 206 -31 252t136 84q58 -17 84 -53v-31q-77 0 -94 -336l21 -11q290 105 347 105h52q116 -149 116 -263h-21l-63 -10q-32 21 -452 84v-11q10 -176 10 -273q21 -34 21 -63q-87 -113 -179 -137 q-21 39 -21 84v137q21 47 21 221l-388 -53q-24 29 -42 116v95q0 10 -11 10z" />
<glyph unicode="," horiz-adv-x="557" d="M74 -278q105 544 105 556q20 19 80 25q99 -29 173 -44q56 -47 56 -86q0 -36 -62 -49q-91 -135 -142 -309q-12 -2 -31 -62l-105 -62q-26 12 -74 19v12z" />
<glyph unicode="-" horiz-adv-x="670" d="M31 570v5q52 25 359 56h107q134 0 134 -97q5 0 5 -21v-10q0 -24 -139 -46q0 -15 -205 -31q-63 29 -199 41q-62 80 -62 103z" />
<glyph unicode="." horiz-adv-x="320" d="M-3 57l5 26v21q0 5 -5 5q0 103 67 103q75 20 82 20h16q45 0 77 -51v-21q0 -28 -77 -180l-26 5h-31q-6 0 -57 -10q-25 0 -51 82z" />
<glyph unicode="/" horiz-adv-x="801" d="M-1 11v19q48 49 173 289q270 456 788 961l183 154v-10q0 -33 -365 -413l-346 -519q0 -55 -298 -394q-66 -106 -125 -106z" />
<glyph unicode="0" horiz-adv-x="1341" d="M98 481q49 249 81 373q-8 45 -8 65q131 249 342 439q17 0 235 73h49q148 -18 317 -154q13 -62 57 -130v-24q0 -135 65 -277q-193 -404 -309 -536q0 -120 -219 -252q-121 -57 -236 -57q-118 0 -325 268q-49 110 -49 212zM316 474q30 -173 91 -173q0 -9 9 -9h18 q244 0 591 536q19 245 19 291q0 228 -82 228h-18q-198 -39 -346 -228l-164 -291q-78 -63 -109 -272z" />
<glyph unicode="1" horiz-adv-x="1117" d="M9 96q0 23 234 125q32 28 172 85q93 308 117 422l8 39l-8 31q15 82 15 125q-61 50 -210 94l-8 31q0 39 133 93q288 242 304 242q31 0 109 47q33 0 39 -86q0 -4 -39 -86q16 -55 16 -62q0 -16 -8 -16q10 -132 16 -148q0 -38 -102 -156q0 -19 -8 -62q8 -57 16 -71 q-31 -117 -125 -343v-15q5 0 102 -8v8q171 -19 171 -110q8 0 8 -8v-15q-17 0 -109 -63q-60 0 -578 -179h-39l-132 31q-26 -15 -47 -15h-8q-23 0 -39 70z" />
<glyph unicode="2" horiz-adv-x="1173" d="M67 148q172 206 468 612l170 195q31 85 170 273q8 16 8 25l-17 9h-8q-151 0 -383 -256q-68 -51 -102 -51q-16 9 -25 9q0 136 110 238q46 98 170 153q172 85 255 85q196 -43 196 -119q22 0 34 -76q0 -42 -340 -400q0 -49 -196 -281q-100 -98 -204 -289v-17h9 q274 77 357 77q7 0 204 -9q28 17 51 17h8q51 -5 51 -25l-76 -128l-102 -51q-9 0 -26 9q-57 0 -612 -145h-76q-60 37 -60 94q-34 17 -34 51z" />
<glyph unicode="3" horiz-adv-x="1314" d="M73 24v18q0 9 19 75l-19 27q117 58 343 130q76 88 306 297q37 83 37 130l-46 9q-20 0 -121 -28q-83 30 -83 47v37q0 56 297 306q0 13 102 148q-9 28 -19 28q-166 0 -482 -194h-9q-48 0 -56 27q0 221 594 344h120q110 0 158 -121q-39 -153 -334 -380q-19 -3 -19 -19v-9 q0 -12 177 -102q0 -10 9 -28q-28 -191 -121 -297q-398 -381 -593 -445q-83 -19 -186 -28q-52 28 -74 28z" />
<glyph unicode="4" horiz-adv-x="1288" d="M80 887q0 291 291 542h29q42 0 97 -87h9v-29q-185 -228 -232 -349h48q223 20 223 58q0 153 272 398q31 19 48 19q19 -10 29 -10v-38q0 -16 -39 -39l10 -97q-43 -130 -97 -194v-48l242 29q120 -29 165 -29h29q10 0 10 9q19 -9 29 -9v-39q-68 -13 -68 -39q0 -22 10 -39 q0 -42 -310 -126q-22 0 -39 10q-66 -10 -107 -10h-38q-68 -210 -136 -281q0 -210 -87 -426q-82 -68 -107 -68h-39q0 48 -19 48q39 101 48 349q33 200 88 340q0 19 -20 19h-184q-155 34 -155 136z" />
<glyph unicode="5" horiz-adv-x="1158" d="M86 233q13 170 47 170q96 0 142 -141q18 -10 28 -10q220 0 509 387q0 23 19 47v94q-25 113 -76 113q-101 0 -273 -104q-16 -9 -47 -9h-10q-216 38 -216 113v94q0 122 -10 264q21 189 104 189h28q9 0 57 -38h245l264 29q151 -103 151 -170v-10q-136 -56 -283 -56h-132 q-21 0 -38 -10q-16 10 -38 10q-126 -19 -160 -19h-9l-10 -47v-10l10 -94h19q119 50 254 66q271 0 321 -151q0 -22 56 -132q19 -65 19 -113q-28 -69 -57 -264q-325 -415 -584 -415q0 -9 -28 -9q-302 135 -302 226z" />
<glyph unicode="6" horiz-adv-x="961" d="M64 313q0 337 301 783l163 237v27q0 9 -9 9q0 25 64 64h9q120 -35 237 -128v-118q0 -27 -127 -73q0 -44 -128 -127q-191 -202 -191 -219v-55q130 -16 291 -136q29 -74 55 -110l-9 -18l9 -109l-137 -264q-60 -42 -109 -73q-9 0 -9 9q-107 -9 -155 -9h-18q-237 62 -237 310 zM254 449q12 -209 46 -209h27q210 79 210 227q-18 42 -37 46h-18q-135 -46 -228 -64z" />
<glyph unicode="7" horiz-adv-x="1285" d="M95 167v9q0 92 119 92q665 847 665 903h-36q-39 0 -137 -82l-173 -64q-73 0 -210 182l18 64v55q19 0 19 9l18 -9h9q77 0 337 73q163 27 420 36l73 -27q-55 -173 -55 -237q-74 -68 -164 -274q-55 0 -73 -110q-59 -21 -274 -437q-82 -47 -136 -238q-94 -109 -174 -109 q-246 80 -246 164z" />
<glyph unicode="8" d="M71 291q96 305 152 305q0 6 136 208q24 0 40 32q-56 102 -56 184q0 245 209 361q61 32 144 56q147 0 192 -144q16 -75 40 -129q-16 -31 -16 -88h8q-21 -101 -160 -232q-60 -29 -104 -96v-16q160 -235 160 -272v-8q0 -39 -64 -161q0 -111 -128 -192q0 -37 -241 -96 q-312 92 -312 288zM247 323q27 -128 40 -128h32q238 30 289 224v49q-22 192 -80 192q-205 0 -249 -208q-16 -40 -32 -129zM463 1044q68 -160 97 -160q52 0 216 216l24 40v32q0 79 -80 137q-115 0 -152 -81q-56 -46 -105 -144v-40z" />
<glyph unicode="9" d="M64 799v32q0 243 246 545q66 106 149 106h118q170 0 170 -192q-47 0 -234 -149q-98 0 -150 -129q-38 -18 -75 -213q16 -43 32 -43h11q230 83 320 256q90 289 128 289l65 10q69 0 117 -128v-21q0 -23 -85 -150q-86 -111 -86 -501v-43q0 -11 11 -11q-22 -49 -22 -107 q43 -223 43 -277q-17 -64 -75 -64h-96q-10 0 -10 -11q-107 35 -107 117v75q43 256 43 342l-22 11q-44 0 -181 -86q-310 164 -310 342z" />
<glyph unicode=":" horiz-adv-x="536" d="M100 117v32q0 157 63 157h55q150 -57 150 -142l8 -39q-43 -134 -134 -134h-24q-118 34 -118 126zM108 929v40q0 56 39 63q292 -45 292 -174v-16q-124 -94 -150 -94h-8q-91 0 -173 181z" />
<glyph unicode=";" horiz-adv-x="557" d="M119 823v34q0 172 69 172h59q163 -63 163 -155l9 -42q-47 -146 -146 -146h-26q-128 36 -128 137zM150 239q11 35 43 51h8q223 -91 223 -257q17 0 34 -120q0 -75 -163 -128l-43 8l-25 -25l8 -43q-28 -26 -42 -26q-35 13 -35 26q52 221 52 299v26q0 28 -60 189z" />
<glyph unicode="&#x3c;" horiz-adv-x="1102" d="M33 778l25 12h12q188 -76 578 -110q234 -25 381 -62v-24l-24 12h-13q-74 0 -110 -62l-148 13q0 -49 -381 -136h-49q-231 0 -259 283zM58 1516v25q0 127 37 172q27 0 270 -160q347 -146 627 -430q0 -17 -61 -62q-167 0 -504 185q-345 69 -345 172q-24 45 -24 98zM107 -95 q501 209 947 307l12 -24q0 -40 -307 -222q-320 -381 -394 -381q-258 143 -258 320z" />
<glyph unicode="=" d="M3 825q257 144 679 144h94q103 0 103 -36q0 -12 -75 -48q-7 0 -56 12q-349 -36 -736 -96zM88 549q0 129 905 168l9 -24v-12q-108 -72 -188 -72q-688 -44 -688 -96l-19 -12q-19 29 -19 48z" />
<glyph unicode="&#x3e;" horiz-adv-x="1080" d="M15 77v24q106 0 725 -221q55 0 74 -111q0 -184 -111 -184h-49q-132 0 -627 467zM27 642q123 0 123 49h62q162 72 245 74l332 98q205 -9 246 -197l25 -159q-30 -25 -50 -25q-983 114 -983 160zM108 1330v12q188 207 590 369h37q160 -225 160 -307q0 -65 -344 -86 q0 -10 -50 -25l-24 12q-67 0 -234 -12q-135 10 -135 37z" />
<glyph unicode="?" horiz-adv-x="819" d="M54 1336v51q0 216 324 395h30q296 0 405 -172l51 -183q-107 -319 -263 -394q-117 -62 -122 -102l10 -50q-20 -150 -162 -496l-30 -21h-10q-61 163 -61 608q39 83 243 263l91 182v10q-78 149 -121 173h-31q-69 -35 -212 -264q-66 -20 -91 -20h-31q-20 0 -20 20zM216 172 q29 36 121 61q96 0 152 -71v-20q-39 -103 -162 -223h-20q-91 65 -91 253z" />
<glyph unicode="@" horiz-adv-x="2019" d="M96 419q0 247 209 640q285 271 626 362q136 0 139 14q599 -73 599 -237q250 -181 250 -515q0 -278 -195 -584q-96 -51 -236 -70q-251 76 -251 251h-14q-225 -292 -389 -292q-277 0 -320 348v27q0 525 501 696h41q70 0 70 -69q-501 -231 -501 -571v-153q0 -122 181 -139 h111q269 140 320 890h28q56 -22 56 -97v-264q0 -529 139 -529h28q178 0 278 348q14 175 14 208q0 176 -84 265q0 125 -111 125v14l14 28q-85 195 -334 195q0 24 -167 28h-70q-640 -201 -640 -334q-83 0 -153 -432q0 -380 265 -696q281 -181 654 -181h55q63 0 390 84v-28 q-261 -167 -431 -167q-731 0 -905 390q-70 68 -167 445z" />
<glyph unicode="A" horiz-adv-x="905" d="M33 174q19 85 31 99v25q18 116 136 494q-31 45 -31 62q0 22 74 62q99 304 205 549l42 19q62 0 62 -124q29 -35 62 -240q16 -63 37 -204q0 -43 86 -62q21 -31 25 -31l-49 -80v-7q36 -77 68 -272q10 0 31 -79q68 -130 68 -192q0 -80 -124 -167h-13q-62 0 -142 365 q-31 75 -62 290q-18 36 -18 62h-44q-32 0 -104 6q-130 -488 -204 -686q-33 -68 -74 -68q-31 10 -56 68v43q0 26 -6 68zM385 899l148 -10q-25 218 -55 293l-26 -22q-63 -186 -63 -237z" />
<glyph unicode="B" horiz-adv-x="972" d="M33 65v7q66 59 66 131q65 454 124 947q-57 29 -66 36h-66q-15 0 -15 15v8q19 43 183 131q39 123 87 123q4 0 29 7q24 -14 37 -14q142 66 189 66q153 0 197 -124q-55 -258 -284 -460v-7q6 -22 189 -58q170 -142 226 -313q-40 -115 -102 -153q0 -71 -394 -262 q-103 -80 -167 -80q-136 -51 -153 -66q-80 24 -80 66zM281 233q138 60 268 206q53 0 110 220v21q0 83 -193 110q-130 0 -130 -103v-21q0 -44 13 -96q0 -33 -62 -220v-14l7 -14q-13 -21 -13 -89zM370 941h14q254 210 254 358v34q0 12 -48 28q-103 0 -158 -90h-14v-27 q0 -16 7 -28q-14 -25 -55 -268v-7z" />
<glyph unicode="C" horiz-adv-x="1136" d="M43 510q0 131 129 493q99 236 175 333q139 145 409 145h8q141 -35 197 -122q121 -188 121 -257q-35 40 -98 45q-51 99 -167 99q0 8 -30 8q-243 -94 -243 -129q-89 -115 -183 -448v-8q0 -16 8 -30q0 -22 -45 -152l7 -75v-122q32 -85 53 -91h8q43 0 53 7q41 -7 68 -7 q113 0 326 129q14 8 30 8h16l22 -16q25 16 39 16q0 -85 -99 -189q0 -75 -144 -92q-107 -53 -145 -53q-6 0 -60 7q-26 -7 -31 -7q-121 0 -279 182q-145 125 -145 326z" />
<glyph unicode="D" horiz-adv-x="1285" d="M41 183v9q0 13 26 26h96l61 -9q62 132 96 576q45 285 87 479q9 15 9 44h-35q-166 -21 -166 -34q-69 19 -69 61q0 61 357 139q9 27 53 27h95q57 0 114 8q427 -49 427 -148q9 0 9 -8v-62q27 -131 35 -131l-8 -17v-9q0 -56 -10 -113q10 -35 10 -61q-25 -42 -36 -192 q-24 -36 -122 -341q-126 -188 -357 -331q-154 -96 -262 -96h-35q-157 0 -375 183zM431 174q9 0 25 -8q333 125 407 299q75 202 100 407q8 0 17 25q0 25 -9 25l9 100v166q-23 108 -183 108h-158q-66 0 -66 -158q-100 -474 -100 -523l8 -75q-25 -211 -50 -291v-75z" />
<glyph unicode="E" horiz-adv-x="1232" d="M39 175l91 289l-8 59q17 79 74 206l-16 124q71 0 83 224q0 76 -83 158q0 9 -8 24q3 29 74 67l17 16l41 -8q67 0 546 141q24 0 282 41q41 -16 41 -50q0 -46 -91 -66q0 -77 -157 -108q-298 -55 -298 -98q-125 -214 -125 -265h9q251 41 315 41q33 -8 33 -41q0 -41 -266 -124 q0 -29 -139 -67q-92 -248 -117 -480q16 -9 25 -9q219 67 488 83q64 -33 84 -33v-9q-59 -50 -59 -65q9 -16 9 -26q-123 -90 -315 -90q-173 -108 -381 -108q-125 11 -125 58q-10 116 -24 116z" />
<glyph unicode="F" horiz-adv-x="1191" d="M42 104q91 158 150 485v10q-37 131 -37 187q0 43 121 74q56 115 56 206v27h-10q-46 -27 -74 -27q-77 0 -103 214q-10 0 -10 29q55 20 75 74l46 -9q169 0 169 56q34 140 112 140h56q13 0 28 -56q-9 -65 -18 -65q9 -18 9 -29h140q40 0 75 20q82 -10 103 -10l83 10 q131 -25 131 -47v-10q0 -115 -448 -224q-169 -67 -169 -103q-27 -98 -27 -121v-46q209 46 476 83h84q37 -12 37 -83v-29l-214 -102q-69 -43 -169 -66l-18 -19l-37 10q-262 -61 -262 -187q-20 -11 -65 -234q-140 -254 -197 -261q-71 0 -93 103z" />
<glyph unicode="G" horiz-adv-x="1374" d="M57 620q0 329 150 564q72 170 264 292q118 53 133 53h150q326 -60 326 -185q15 0 26 -62q0 -238 -105 -238q-38 7 -124 140q-110 98 -158 98q-136 44 -186 44q-106 0 -238 -229l-26 -98v-97q0 -56 -9 -114q13 -351 176 -450q0 -12 45 -44h26q220 36 220 141v44 q0 22 -18 79h-17q-64 -79 -88 -79v-9q-133 62 -133 239q-15 0 -17 43q17 32 35 115q646 62 749 97q64 35 71 35q9 -17 9 -26q0 -11 -80 -71q-22 -105 -105 -105q-65 -80 -212 -150q-30 -233 -70 -362q-113 -282 -247 -282q0 14 -35 35h-18q-36 0 -97 -8q-210 82 -300 246 q-97 196 -97 344z" />
<glyph unicode="H" horiz-adv-x="1132" d="M50 72q25 258 99 552l-50 74q0 16 75 58l156 617q43 58 74 58q99 -33 99 -82q-58 -136 -140 -593h58q204 66 222 66h66q41 0 123 543q0 181 74 181q165 0 165 -57q-115 -182 -115 -478q-33 -85 -33 -124v-24l8 -41h41q91 -13 91 -33v-17q0 -33 -132 -66 q-82 -388 -123 -527q-11 0 -50 -140q-61 -49 -99 -49q-57 70 -57 91q0 33 107 576l-25 16q-86 -33 -272 -49h-57l-9 -41q9 -43 9 -50q-83 -224 -83 -370q-44 -157 -148 -157v-8q-74 35 -74 74z" />
<glyph unicode="I" horiz-adv-x="1389" d="M46 87q16 31 50 31h93q213 44 347 93l6 13q-19 41 -19 56v18q0 64 93 415q37 306 93 490q-12 6 -18 6q-21 0 -31 -6q-35 6 -50 6q-103 0 -143 -37q0 -25 -186 -50q-24 -24 -55 -37q-52 0 -68 137q-7 0 -7 6v18q0 26 261 62q151 62 520 149h50q0 34 272 43q15 0 75 -37 l-6 -31q0 -11 12 -31q0 -60 -112 -80q0 -21 -204 -44q-70 -37 -155 -37l-12 -18v-19q0 -6 6 -6l-6 -13v-62q0 -54 -69 -303q0 -27 -12 -68v-56q0 -45 -31 -130q6 -34 6 -56v-43l-43 -168l-6 -31h24q18 0 428 99h68q75 -22 75 -43v-12q0 -137 -143 -137q-105 -57 -285 -80 q-12 -16 -173 -37q-77 -29 -230 -62q0 -10 -130 -38q-145 -105 -167 -105q-53 0 -87 130q-9 0 -19 19l7 25q-19 31 -19 61z" />
<glyph unicode="J" horiz-adv-x="1098" d="M53 556q20 10 48 103h34q49 0 82 -144q19 0 28 -68q-28 -71 -28 -89v-7q0 -58 41 -82h21q103 92 178 321q102 306 102 527q7 0 7 48h-7q-27 0 -212 -68l-137 27q0 19 -54 48q0 123 61 123q325 130 568 206q0 17 158 27q86 -153 109 -240q0 -12 -62 -68v-14l7 -41 q-9 -34 -20 -34l-69 103h-61q-69 0 -69 -151q-9 0 -27 -34v-75q-41 -59 -68 -171q0 -16 6 -28q-26 -91 -61 -301q-31 -41 -55 -171q-12 0 -14 -34h7q-80 -201 -157 -233q-18 -14 -62 -34l-13 7h-14l-41 -7q-205 149 -205 328q-14 0 -21 226z" />
<glyph unicode="K" horiz-adv-x="1232" d="M59 203q8 125 8 247h-8q23 66 69 756q8 0 16 23q0 17 -8 31l8 69q0 61 -23 170q0 41 162 54v8q193 0 193 -100q6 -31 15 -31q-21 -71 -46 -247q-14 0 -16 -39q0 -8 8 -8q-27 -114 -54 -177q8 -23 16 -23q-16 -66 -16 -116h8q30 0 147 116q188 280 293 401l100 101h8 q216 -55 216 -132v-100q0 -13 -139 -77q-108 -55 -131 -131q-15 0 -147 -108q-55 0 -116 -101q-46 -16 -46 -31v-46q104 -137 124 -139q0 -60 131 -139q5 -46 216 -255q-21 -51 -139 -177q0 -37 -85 -85q-15 0 -154 239q-155 258 -286 417l-15 8h-16v-23q0 -20 -23 -93v-15 q0 -41 8 -70q-16 -92 -16 -255q0 -8 8 -23q-92 -131 -201 -131q-54 8 -54 62l8 38q-15 16 -23 132z" />
<glyph unicode="L" horiz-adv-x="1083" d="M45 152q42 147 101 462q149 399 201 721q42 185 109 185h25q277 -71 277 -143q0 -16 -142 -168q-62 -246 -84 -277q-51 0 -51 -92q-19 0 -42 -142q-22 -42 -84 -252q-32 -137 -142 -243v-26h75q531 76 630 76q94 0 117 -67q0 -118 -134 -118q-89 -25 -126 -25l-76 9 l-243 -68l-17 9h-159q-8 0 -67 -17h-34q-126 27 -126 67q9 33 9 59q0 14 -17 50z" />
<glyph unicode="M" horiz-adv-x="1616" d="M-42 109q102 309 224 473q50 159 207 555q91 382 174 382q137 0 200 -241l-9 -41q0 -9 9 -25l-9 -50v-16q0 -76 33 -150h9q22 19 199 332q68 133 166 133q0 18 74 33q17 0 83 -17l42 17q48 0 91 -108l-8 -17q8 -79 16 -91q-16 -141 -25 -290q9 -42 17 -42q0 -8 -8 -24 q10 -196 16 -199q-25 -71 -25 -100v-66l58 -291q58 -28 58 -41v-8l-8 -42q12 0 25 -25v-8q-21 -72 -265 -100q0 -24 -17 -24h-25q-42 58 -58 58q-45 -9 -75 -9h-16q-18 0 -42 100q58 290 58 332q0 96 -8 224l42 273v67h-17q-51 -36 -83 -150q-96 -162 -129 -283 q-35 -44 -91 -69q-63 -34 -135 -65q-21 19 -43 109l-41 122l-27 40l-29 73l-27 85q-69 -205 -125 -335l8 -17q-58 -53 -58 -132l9 -17q-33 -86 -33 -100v-33q0 -8 8 -8q-17 -30 -17 -66l9 -34q-61 -182 -166 -182q-104 50 -208 66z" />
<glyph unicode="N" horiz-adv-x="1355" d="M40 52q42 45 81 339q81 267 121 550q52 335 121 421q0 61 25 145h8q49 0 105 -121q137 -106 137 -332q0 -28 106 -210q33 -84 56 -89h8q8 147 8 194l89 413q0 145 178 145q0 13 170 25q89 -38 89 -73q0 -16 -73 -162l-194 -566l-32 -178q0 -6 8 -49q0 -237 -89 -485 q-8 -24 -49 -24q-66 32 -80 32v-8q-35 3 -146 243q-43 56 -121 251q-100 263 -114 275q-97 -92 -97 -275h8q-16 -27 -16 -41q16 -103 16 -121q-18 0 -24 -41q19 0 24 -40q-8 -58 -8 -65q0 -37 25 -73v-24q0 -113 -97 -113l-73 8l-16 -8q-46 24 -65 24l-40 -8q-16 0 -49 41z " />
<glyph unicode="O" horiz-adv-x="1098" d="M46 693q0 333 307 597q138 145 238 145h51q58 0 324 -239q77 -109 77 -205l-9 -59l9 -17l-9 -51q0 -9 9 -9l-77 -349q0 -142 -247 -392q-56 -60 -255 -111q-392 154 -392 443q-17 0 -26 247zM233 685q0 -34 69 -324q52 -114 162 -171q58 -8 93 -8q137 0 264 307 q26 62 43 392q-37 264 -102 264q0 17 -102 68h-35q-153 -40 -349 -324q-29 0 -43 -179v-25z" />
<glyph unicode="P" horiz-adv-x="1445" d="M52 85v8q88 59 125 217q75 292 141 615q19 0 50 199v9q-8 0 -67 -17h-16l-42 8v25q0 53 175 166q0 55 149 75q201 80 508 225h74q26 20 108 33q66 0 125 -241q-8 -73 -8 -83l8 -83q0 -56 -191 -308q-78 -133 -233 -183q-68 -58 -440 -183q-50 -78 -109 -307v-67 q17 -59 17 -66v-9q-40 -99 -108 -99h-75l-100 -17q-91 39 -91 83zM576 750h8q83 0 83 17q27 -17 50 -17q399 170 399 541q0 79 -50 174h-8q-55 -31 -324 -141q-92 -46 -92 -58q17 -34 17 -50q-17 -28 -17 -50v-25q0 -8 9 -8q-34 -70 -75 -266v-25q0 -19 8 -34q-8 -14 -8 -33 v-25z" />
<glyph unicode="Q" horiz-adv-x="1400" d="M54 656q68 364 194 557q315 290 431 313q42 0 127 8l253 -51q129 0 228 -261q59 -97 59 -119v-42q-51 -253 -76 -321q-110 -150 -110 -194q102 -248 161 -515q0 -61 -34 -93q-144 0 -270 236q-29 9 -85 85q-135 -68 -397 -253q-37 -17 -93 -26q-99 11 -177 76 q-109 69 -177 321zM282 588q49 -25 76 -169q20 0 42 -126q93 -93 203 -93q89 0 228 202q-95 104 -194 271v33q190 195 321 195q42 -26 67 -26q17 63 17 85q-85 304 -160 304q0 34 -271 59h-17q-78 0 -152 -110q-135 -255 -135 -388q-8 -45 -25 -237z" />
<glyph unicode="R" horiz-adv-x="1251" d="M52 45q28 61 74 370q185 547 185 672v7q-60 31 -60 37q0 85 82 118q66 71 66 96q8 78 30 104v74q2 14 15 14h14q22 0 37 -81l-7 -37q7 -14 7 -22h37q289 148 443 148q151 0 222 -370q-58 -192 -170 -192q-127 -59 -140 -59q-22 -95 -37 -118v-7q0 -45 140 -281 q0 -24 44 -52q15 -118 15 -125v-45q-15 -18 -15 -29q60 -68 60 -111l-30 -52q15 -48 37 -74v-14q-19 0 -52 -52q-50 30 -59 30l-37 -8q0 35 -51 96q-9 176 -207 429q-57 145 -185 354q0 68 118 96q29 31 340 222q81 80 81 118v30l-7 37h-15q-61 0 -244 -74l-74 7 q-17 -33 -177 -81q-66 -57 -66 -192q0 -11 -59 -251v-111l7 -45q-22 -48 -22 -66q0 -8 7 -22q-52 -157 -52 -170v-7q0 -8 8 -8q-10 -88 -22 -111l7 -51l-7 -67q14 -52 22 -52q-26 -81 -89 -81q-78 15 -103 15h-30q-7 0 -7 -7q-74 24 -74 51z" />
<glyph unicode="S" horiz-adv-x="1083" d="M42 -19v52q16 32 222 96q174 90 267 223q148 257 148 385v15q-79 30 -89 30q-29 -8 -51 -8q0 17 -134 45q-148 140 -148 207q-8 40 -8 82q161 364 245 429q22 0 82 30l44 -7q61 14 67 29l15 -7h66q104 -61 104 -119q-40 -91 -222 -192q-28 -7 -126 -141q-40 0 -60 -96 q0 -128 304 -156q252 -25 252 -126q8 -67 15 -67q0 -18 -89 -155q-109 -242 -282 -408q-17 0 -140 -118q-97 -62 -230 -82q-183 17 -252 59z" />
<glyph unicode="T" horiz-adv-x="1355" d="M51 1248v8q0 10 21 21h71q346 99 574 127q151 64 340 64q0 5 113 28q38 -7 64 -7h21q25 0 64 7q35 -7 35 -28q0 -82 -127 -184q-118 -43 -362 -57q-92 -50 -92 -106l-7 -35q14 -119 14 -135q-7 -37 -7 -42l7 -43l-28 -113q14 0 21 -191q-19 -87 -42 -128q7 -60 7 -99v-21 q57 -62 57 -184q-64 -135 -163 -135q-191 29 -192 42q-7 16 -14 64l7 43q0 7 -7 21q41 219 78 736q29 89 29 199v7h-64q-26 0 -64 -29l-35 8q-170 -78 -184 -78h-8q-49 0 -106 92q14 23 14 42v7q-35 92 -35 99z" />
<glyph unicode="U" horiz-adv-x="1191" d="M50 1156q45 351 80 351q37 15 132 15q56 0 110 -44v-14q-44 -88 -44 -161h7q-20 -37 -29 -220q25 -217 51 -293l-7 -44q22 -47 102 -351q44 -103 103 -168h7q91 69 132 249q73 135 110 585q51 454 80 454l59 36q28 -14 80 -14l37 7q24 -15 44 -15h29l7 -51v-95 q0 -16 8 -29q-22 -60 -22 -103h7l-7 -14v-44q0 -37 -37 -110l7 -44q-14 -52 -21 -110q7 -39 7 -65q-41 -330 -73 -330v-22q7 0 22 -29q-35 -202 -132 -293q0 -123 -242 -153q-39 0 -109 -37q-286 136 -286 234q-175 330 -175 593q-12 0 -30 190v110q0 16 -7 29z" />
<glyph unicode="V" horiz-adv-x="1299" d="M51 1298v7q0 69 134 104q0 16 112 30q20 19 74 22h22q119 -14 119 -126q-74 -27 -74 -104q0 -132 119 -357q15 -67 52 -134l-7 -15q0 -60 52 -171h15q0 14 111 409q97 357 97 513l22 15h15q335 -39 335 -141q0 -18 -104 -134q-67 -110 -82 -201q-37 -74 -45 -134 q-22 0 -22 -22q7 -15 7 -23q-74 -220 -74 -253h7q-29 -203 -133 -483q-43 0 -67 -90q-8 0 -8 -7q-43 0 -89 97q-86 0 -127 171q-108 166 -215 461q-87 142 -194 521q-52 31 -52 45z" />
<glyph unicode="W" horiz-adv-x="1798" d="M2 1311v15q11 26 136 68h99q7 0 60 15h53q92 -8 144 -75q16 -25 16 -38q-24 -26 -99 -76l-15 -23v-15q0 -82 38 -151l-8 -16v-53q41 0 121 -470v-61h23q15 49 15 68v76q52 342 76 342q76 8 76 15l15 -7h106q109 0 152 -91l-7 -39q0 -48 23 -152v-98h37q0 25 167 440 l136 561h160q40 30 68 30h15q21 -34 182 -114l7 -15v-7q0 -87 -151 -99q-76 -33 -76 -151l-68 -152v-7q0 -8 7 -8q-30 -53 -98 -304q-91 -201 -167 -523q-111 -128 -129 -128q-7 -69 -30 -69h-23l-68 61l-30 -8q-59 0 -175 387q-15 68 -31 68h-7q-24 -283 -99 -311 q-15 -1 -15 -15v-22q0 -19 15 -69q-83 -98 -83 -151v-30q-7 0 -23 -8q-49 0 -98 121q-58 0 -91 205q-58 159 -151 477q-91 261 -167 531z" />
<glyph unicode="X" horiz-adv-x="1385" d="M32 111q18 13 206 378q159 212 159 241q-141 193 -255 468q-27 14 -27 41q78 79 282 145q117 0 117 -69v-7q-49 -80 -49 -124q0 -65 111 -302h6q31 0 110 233q78 97 138 338q56 34 90 34q0 -19 178 -41q61 -33 76 -83q0 -36 -138 -103q-158 -160 -185 -213 q-26 -1 -97 -124q-10 0 -27 -28q82 -104 82 -192q32 0 69 -104l131 -110q43 0 96 -117q37 -68 110 -82q26 -90 83 -90q39 -32 41 -48q0 -77 -199 -151q-30 0 -83 -55q-5 0 -41 7q-45 -14 -62 -14q-37 43 -220 365q-43 120 -131 268h-14q0 -26 -124 -241q-27 -54 -27 -144 q7 -21 14 -21l-7 -34v-21q41 -45 41 -76q0 -27 -172 -55l-199 42q0 12 -76 27q0 25 -7 62z" />
<glyph unicode="Y" horiz-adv-x="1009" d="M2 1308q0 41 120 76q34 43 114 43q90 0 103 -81l5 -27l-27 -22v-44q0 -51 87 -255q0 -14 33 -130q0 -44 38 -44h5q22 42 22 54l-5 11q48 190 141 495q0 119 54 119h163q131 -16 131 -54q8 0 16 -16l-5 -27h5q0 -28 -60 -49q0 -10 -38 -27q-50 -49 -76 -142 q-36 -47 -60 -157q-34 -9 -98 -234q-8 0 -16 -22l6 -65l-55 -250q-65 -111 -65 -185q-11 -2 -11 -11v-32q0 -32 -60 -201q-32 -25 -65 -33q-109 0 -109 120v5q39 194 147 516q6 39 6 44q-55 0 -104 87q-44 39 -59 98q-88 94 -147 206q-79 177 -136 234z" />
<glyph unicode="Z" horiz-adv-x="1389" d="M38 30v15q0 28 239 311q212 255 500 688q79 87 123 159v15q-15 29 -44 29q-185 -80 -217 -80q-80 0 -181 -72v-44q-15 0 -15 -7q-144 0 -144 72q-23 0 -58 131v79q-22 70 -22 109v14q17 0 58 22q151 -14 188 -14q64 7 80 7q99 -22 145 -22h58q76 0 238 15q138 0 138 -102 v-79q0 -17 7 -29q0 -18 -79 -102q-229 -247 -377 -499q-37 -40 -72 -123q-121 -150 -268 -312v-14h7q105 50 637 239q133 31 196 94q76 0 123 -210q36 -78 36 -232q-43 -64 -43 -80l-37 8q0 -11 -21 -22h-8q-35 45 -86 51v36h-22q-34 0 -51 22q-223 0 -485 -80v-7l-51 7h-43 q-31 -29 -58 -29q-13 0 -65 29q-141 -22 -254 -22q-72 9 -72 29z" />
<glyph unicode="[" horiz-adv-x="685" d="M96 798q0 326 60 672l-12 72q83 60 156 60q288 0 288 -72q-12 -48 -48 -48q-58 0 -276 12q0 -40 -12 -60q0 -30 12 -96q-12 -425 -12 -492q12 -374 12 -480q-12 -48 -12 -84h12q-36 -151 -60 -468h204q120 0 120 -96v-12l-60 -12h-300l-48 36q0 13 12 36 q-36 774 -36 1032z" />
<glyph unicode="\" horiz-adv-x="1028" d="M3 1569q4 24 24 24h48q83 0 144 -216q451 -787 804 -1272v-84q0 -16 -60 -60h-36q0 18 -804 1332q-120 237 -120 276z" />
<glyph unicode="]" horiz-adv-x="684" d="M99 -241q99 72 264 72l72 -12q0 67 12 132q0 22 -12 288q0 111 12 312q-12 271 -12 336q0 183 24 672q-195 -24 -312 -24q-48 18 -48 36v12q0 44 456 84q0 -24 12 -24l-12 -24q0 -40 12 -60q-24 -101 -24 -264v-1284q0 -324 -72 -324l-144 12h-132q-65 0 -96 60z" />
<glyph unicode="^" d="M100 1038v19q79 212 417 588q56 66 85 66q45 0 133 -265q47 0 161 -247v-38q0 -85 -123 -104q-57 135 -133 398q-22 19 -66 123h-19q-72 -62 -142 -331l9 -19q-52 -181 -151 -181q-90 -9 -171 -9z" />
<glyph unicode="_" horiz-adv-x="1038" d="M-1 -157q2 17 11 17h21q262 69 516 69q235 0 488 -104v-8q-48 0 -64 -9q-50 26 -301 43q-43 -17 -64 -17l-49 9q-29 -18 -365 -61q-19 17 -43 17h-102q-48 18 -48 44z" />
<glyph unicode="`" horiz-adv-x="1024" d="M206 1338v7q0 71 134 82q33 0 230 -282q40 -25 67 -82l-15 -8q-416 205 -416 283z" />
<glyph unicode="a" horiz-adv-x="905" d="M33 174q19 85 31 99v25q18 116 136 494q-31 45 -31 62q0 22 74 62q99 304 205 549l42 19q62 0 62 -124q29 -35 62 -240q16 -63 37 -204q0 -43 86 -62q21 -31 25 -31l-49 -80v-7q36 -77 68 -272q10 0 31 -79q68 -130 68 -192q0 -80 -124 -167h-13q-62 0 -142 365 q-31 75 -62 290q-18 36 -18 62h-44q-32 0 -104 6q-130 -488 -204 -686q-33 -68 -74 -68q-31 10 -56 68v43q0 26 -6 68zM385 899l148 -10q-25 218 -55 293l-26 -22q-63 -186 -63 -237z" />
<glyph unicode="b" horiz-adv-x="972" d="M33 65v7q66 59 66 131q65 454 124 947q-57 29 -66 36h-66q-15 0 -15 15v8q19 43 183 131q39 123 87 123q4 0 29 7q24 -14 37 -14q142 66 189 66q153 0 197 -124q-55 -258 -284 -460v-7q6 -22 189 -58q170 -142 226 -313q-40 -115 -102 -153q0 -71 -394 -262 q-103 -80 -167 -80q-136 -51 -153 -66q-80 24 -80 66zM281 233q138 60 268 206q53 0 110 220v21q0 83 -193 110q-130 0 -130 -103v-21q0 -44 13 -96q0 -33 -62 -220v-14l7 -14q-13 -21 -13 -89zM370 941h14q254 210 254 358v34q0 12 -48 28q-103 0 -158 -90h-14v-27 q0 -16 7 -28q-14 -25 -55 -268v-7z" />
<glyph unicode="c" horiz-adv-x="1136" d="M43 510q0 131 129 493q99 236 175 333q139 145 409 145h8q141 -35 197 -122q121 -188 121 -257q-35 40 -98 45q-51 99 -167 99q0 8 -30 8q-243 -94 -243 -129q-89 -115 -183 -448v-8q0 -16 8 -30q0 -22 -45 -152l7 -75v-122q32 -85 53 -91h8q43 0 53 7q41 -7 68 -7 q113 0 326 129q14 8 30 8h16l22 -16q25 16 39 16q0 -85 -99 -189q0 -75 -144 -92q-107 -53 -145 -53q-6 0 -60 7q-26 -7 -31 -7q-121 0 -279 182q-145 125 -145 326z" />
<glyph unicode="d" horiz-adv-x="1285" d="M41 183v9q0 13 26 26h96l61 -9q62 132 96 576q45 285 87 479q9 15 9 44h-35q-166 -21 -166 -34q-69 19 -69 61q0 61 357 139q9 27 53 27h95q57 0 114 8q427 -49 427 -148q9 0 9 -8v-62q27 -131 35 -131l-8 -17v-9q0 -56 -10 -113q10 -35 10 -61q-25 -42 -36 -192 q-24 -36 -122 -341q-126 -188 -357 -331q-154 -96 -262 -96h-35q-157 0 -375 183zM431 174q9 0 25 -8q333 125 407 299q75 202 100 407q8 0 17 25q0 25 -9 25l9 100v166q-23 108 -183 108h-158q-66 0 -66 -158q-100 -474 -100 -523l8 -75q-25 -211 -50 -291v-75z" />
<glyph unicode="e" horiz-adv-x="1232" d="M39 175l91 289l-8 59q17 79 74 206l-16 124q71 0 83 224q0 76 -83 158q0 9 -8 24q3 29 74 67l17 16l41 -8q67 0 546 141q24 0 282 41q41 -16 41 -50q0 -46 -91 -66q0 -77 -157 -108q-298 -55 -298 -98q-125 -214 -125 -265h9q251 41 315 41q33 -8 33 -41q0 -41 -266 -124 q0 -29 -139 -67q-92 -248 -117 -480q16 -9 25 -9q219 67 488 83q64 -33 84 -33v-9q-59 -50 -59 -65q9 -16 9 -26q-123 -90 -315 -90q-173 -108 -381 -108q-125 11 -125 58q-10 116 -24 116z" />
<glyph unicode="f" horiz-adv-x="1191" d="M42 104q91 158 150 485v10q-37 131 -37 187q0 43 121 74q56 115 56 206v27h-10q-46 -27 -74 -27q-77 0 -103 214q-10 0 -10 29q55 20 75 74l46 -9q169 0 169 56q34 140 112 140h56q13 0 28 -56q-9 -65 -18 -65q9 -18 9 -29h140q40 0 75 20q82 -10 103 -10l83 10 q131 -25 131 -47v-10q0 -115 -448 -224q-169 -67 -169 -103q-27 -98 -27 -121v-46q209 46 476 83h84q37 -12 37 -83v-29l-214 -102q-69 -43 -169 -66l-18 -19l-37 10q-262 -61 -262 -187q-20 -11 -65 -234q-140 -254 -197 -261q-71 0 -93 103z" />
<glyph unicode="g" horiz-adv-x="1374" d="M57 620q0 329 150 564q72 170 264 292q118 53 133 53h150q326 -60 326 -185q15 0 26 -62q0 -238 -105 -238q-38 7 -124 140q-110 98 -158 98q-136 44 -186 44q-106 0 -238 -229l-26 -98v-97q0 -56 -9 -114q13 -351 176 -450q0 -12 45 -44h26q220 36 220 141v44 q0 22 -18 79h-17q-64 -79 -88 -79v-9q-133 62 -133 239q-15 0 -17 43q17 32 35 115q646 62 749 97q64 35 71 35q9 -17 9 -26q0 -11 -80 -71q-22 -105 -105 -105q-65 -80 -212 -150q-30 -233 -70 -362q-113 -282 -247 -282q0 14 -35 35h-18q-36 0 -97 -8q-210 82 -300 246 q-97 196 -97 344z" />
<glyph unicode="h" horiz-adv-x="1132" d="M50 72q25 258 99 552l-50 74q0 16 75 58l156 617q43 58 74 58q99 -33 99 -82q-58 -136 -140 -593h58q204 66 222 66h66q41 0 123 543q0 181 74 181q165 0 165 -57q-115 -182 -115 -478q-33 -85 -33 -124v-24l8 -41h41q91 -13 91 -33v-17q0 -33 -132 -66 q-82 -388 -123 -527q-11 0 -50 -140q-61 -49 -99 -49q-57 70 -57 91q0 33 107 576l-25 16q-86 -33 -272 -49h-57l-9 -41q9 -43 9 -50q-83 -224 -83 -370q-44 -157 -148 -157v-8q-74 35 -74 74z" />
<glyph unicode="i" horiz-adv-x="737" d="M51 110v23q67 40 92 138q130 677 276 1127q48 99 99 99h85q59 0 84 -76l-8 -16l8 -53q0 -27 -92 -169q0 -53 -77 -352l8 -39l-46 -375q0 -8 8 -8l-8 -38v-230q0 -104 -153 -138q-127 0 -276 107z" />
<glyph unicode="j" horiz-adv-x="1098" d="M53 556q20 10 48 103h34q49 0 82 -144q19 0 28 -68q-28 -71 -28 -89v-7q0 -58 41 -82h21q103 92 178 321q102 306 102 527q7 0 7 48h-7q-27 0 -212 -68l-137 27q0 19 -54 48q0 123 61 123q325 130 568 206q0 17 158 27q86 -153 109 -240q0 -12 -62 -68v-14l7 -41 q-9 -34 -20 -34l-69 103h-61q-69 0 -69 -151q-9 0 -27 -34v-75q-41 -59 -68 -171q0 -16 6 -28q-26 -91 -61 -301q-31 -41 -55 -171q-12 0 -14 -34h7q-80 -201 -157 -233q-18 -14 -62 -34l-13 7h-14l-41 -7q-205 149 -205 328q-14 0 -21 226z" />
<glyph unicode="k" horiz-adv-x="1232" d="M59 203q8 125 8 247h-8q23 66 69 756q8 0 16 23q0 17 -8 31l8 69q0 61 -23 170q0 41 162 54v8q193 0 193 -100q6 -31 15 -31q-21 -71 -46 -247q-14 0 -16 -39q0 -8 8 -8q-27 -114 -54 -177q8 -23 16 -23q-16 -66 -16 -116h8q30 0 147 116q188 280 293 401l100 101h8 q216 -55 216 -132v-100q0 -13 -139 -77q-108 -55 -131 -131q-15 0 -147 -108q-55 0 -116 -101q-46 -16 -46 -31v-46q104 -137 124 -139q0 -60 131 -139q5 -46 216 -255q-21 -51 -139 -177q0 -37 -85 -85q-15 0 -154 239q-155 258 -286 417l-15 8h-16v-23q0 -20 -23 -93v-15 q0 -41 8 -70q-16 -92 -16 -255q0 -8 8 -23q-92 -131 -201 -131q-54 8 -54 62l8 38q-15 16 -23 132z" />
<glyph unicode="l" horiz-adv-x="1083" d="M45 152q42 147 101 462q149 399 201 721q42 185 109 185h25q277 -71 277 -143q0 -16 -142 -168q-62 -246 -84 -277q-51 0 -51 -92q-19 0 -42 -142q-22 -42 -84 -252q-32 -137 -142 -243v-26h75q531 76 630 76q94 0 117 -67q0 -118 -134 -118q-89 -25 -126 -25l-76 9 l-243 -68l-17 9h-159q-8 0 -67 -17h-34q-126 27 -126 67q9 33 9 59q0 14 -17 50z" />
<glyph unicode="m" horiz-adv-x="1616" d="M-42 109q102 309 224 473q50 159 207 555q91 382 174 382q137 0 200 -241l-9 -41q0 -9 9 -25l-9 -50v-16q0 -76 33 -150h9q22 19 199 332q68 133 166 133q0 18 74 33q17 0 83 -17l42 17q48 0 91 -108l-8 -17q8 -79 16 -91q-16 -141 -25 -290q9 -42 17 -42q0 -8 -8 -24 q10 -196 16 -199q-25 -71 -25 -100v-66l58 -291q58 -28 58 -41v-8l-8 -42q12 0 25 -25v-8q-21 -72 -265 -100q0 -24 -17 -24h-25q-42 58 -58 58q-45 -9 -75 -9h-16q-18 0 -42 100q58 290 58 332q0 96 -8 224l42 273v67h-17q-51 -36 -83 -150q-96 -162 -129 -283 q-35 -44 -91 -69q-63 -34 -135 -65q-21 19 -43 109l-41 122l-27 40l-29 73l-27 85q-69 -205 -125 -335l8 -17q-58 -53 -58 -132l9 -17q-33 -86 -33 -100v-33q0 -8 8 -8q-17 -30 -17 -66l9 -34q-61 -182 -166 -182q-104 50 -208 66z" />
<glyph unicode="n" horiz-adv-x="1392" d="M40 52q42 45 81 339q81 267 121 550q52 335 121 421q0 61 25 145h8q49 0 105 -121q137 -106 137 -332q0 -28 106 -210q33 -84 56 -89h8q8 147 8 194l89 413q0 145 178 145q0 13 170 25q89 -38 89 -73q0 -16 -73 -162l-194 -566l-32 -178q0 -6 8 -49q0 -237 -89 -485 q-8 -24 -49 -24q-66 32 -80 32v-8q-35 3 -146 243q-43 56 -121 251q-100 263 -114 275q-97 -92 -97 -275h8q-16 -27 -16 -41q16 -103 16 -121q-18 0 -24 -41q19 0 24 -40q-8 -58 -8 -65q0 -37 25 -73v-24q0 -113 -97 -113l-73 8l-16 -8q-46 24 -65 24l-40 -8q-16 0 -49 41z " />
<glyph unicode="o" horiz-adv-x="1098" d="M46 693q0 333 307 597q138 145 238 145h51q58 0 324 -239q77 -109 77 -205l-9 -59l9 -17l-9 -51q0 -9 9 -9l-77 -349q0 -142 -247 -392q-56 -60 -255 -111q-392 154 -392 443q-17 0 -26 247zM233 685q0 -34 69 -324q52 -114 162 -171q58 -8 93 -8q137 0 264 307 q26 62 43 392q-37 264 -102 264q0 17 -102 68h-35q-153 -40 -349 -324q-29 0 -43 -179v-25z" />
<glyph unicode="p" horiz-adv-x="1445" d="M52 85v8q88 59 125 217q75 292 141 615q19 0 50 199v9q-8 0 -67 -17h-16l-42 8v25q0 53 175 166q0 55 149 75q201 80 508 225h74q26 20 108 33q66 0 125 -241q-8 -73 -8 -83l8 -83q0 -56 -191 -308q-78 -133 -233 -183q-68 -58 -440 -183q-50 -78 -109 -307v-67 q17 -59 17 -66v-9q-40 -99 -108 -99h-75l-100 -17q-91 39 -91 83zM576 750h8q83 0 83 17q27 -17 50 -17q399 170 399 541q0 79 -50 174h-8q-55 -31 -324 -141q-92 -46 -92 -58q17 -34 17 -50q-17 -28 -17 -50v-25q0 -8 9 -8q-34 -70 -75 -266v-25q0 -19 8 -34q-8 -14 -8 -33 v-25z" />
<glyph unicode="q" horiz-adv-x="1400" d="M54 656q68 364 194 557q315 290 431 313q42 0 127 8l253 -51q129 0 228 -261q59 -97 59 -119v-42q-51 -253 -76 -321q-110 -150 -110 -194q102 -248 161 -515q0 -61 -34 -93q-144 0 -270 236q-29 9 -85 85q-135 -68 -397 -253q-37 -17 -93 -26q-99 11 -177 76 q-109 69 -177 321zM282 588q49 -25 76 -169q20 0 42 -126q93 -93 203 -93q89 0 228 202q-95 104 -194 271v33q190 195 321 195q42 -26 67 -26q17 63 17 85q-85 304 -160 304q0 34 -271 59h-17q-78 0 -152 -110q-135 -255 -135 -388q-8 -45 -25 -237z" />
<glyph unicode="r" horiz-adv-x="1251" d="M52 45q28 61 74 370q185 547 185 672v7q-60 31 -60 37q0 85 82 118q66 71 66 96q8 78 30 104v74q2 14 15 14h14q22 0 37 -81l-7 -37q7 -14 7 -22h37q289 148 443 148q151 0 222 -370q-58 -192 -170 -192q-127 -59 -140 -59q-22 -95 -37 -118v-7q0 -45 140 -281 q0 -24 44 -52q15 -118 15 -125v-45q-15 -18 -15 -29q60 -68 60 -111l-30 -52q15 -48 37 -74v-14q-19 0 -52 -52q-50 30 -59 30l-37 -8q0 35 -51 96q-9 176 -207 429q-57 145 -185 354q0 68 118 96q29 31 340 222q81 80 81 118v30l-7 37h-15q-61 0 -244 -74l-74 7 q-17 -33 -177 -81q-66 -57 -66 -192q0 -11 -59 -251v-111l7 -45q-22 -48 -22 -66q0 -8 7 -22q-52 -157 -52 -170v-7q0 -8 8 -8q-10 -88 -22 -111l7 -51l-7 -67q14 -52 22 -52q-26 -81 -89 -81q-78 15 -103 15h-30q-7 0 -7 -7q-74 24 -74 51z" />
<glyph unicode="s" horiz-adv-x="1083" d="M42 -19v52q16 32 222 96q174 90 267 223q148 257 148 385v15q-79 30 -89 30q-29 -8 -51 -8q0 17 -134 45q-148 140 -148 207q-8 40 -8 82q161 364 245 429q22 0 82 30l44 -7q61 14 67 29l15 -7h66q104 -61 104 -119q-40 -91 -222 -192q-28 -7 -126 -141q-40 0 -60 -96 q0 -128 304 -156q252 -25 252 -126q8 -67 15 -67q0 -18 -89 -155q-109 -242 -282 -408q-17 0 -140 -118q-97 -62 -230 -82q-183 17 -252 59z" />
<glyph unicode="t" horiz-adv-x="1355" d="M51 1248v8q0 10 21 21h71q346 99 574 127q151 64 340 64q0 5 113 28q38 -7 64 -7h21q25 0 64 7q35 -7 35 -28q0 -82 -127 -184q-118 -43 -362 -57q-92 -50 -92 -106l-7 -35q14 -119 14 -135q-7 -37 -7 -42l7 -43l-28 -113q14 0 21 -191q-19 -87 -42 -128q7 -60 7 -99v-21 q57 -62 57 -184q-64 -135 -163 -135q-191 29 -192 42q-7 16 -14 64l7 43q0 7 -7 21q41 219 78 736q29 89 29 199v7h-64q-26 0 -64 -29l-35 8q-170 -78 -184 -78h-8q-49 0 -106 92q14 23 14 42v7q-35 92 -35 99z" />
<glyph unicode="u" horiz-adv-x="1191" d="M50 1156q45 351 80 351q37 15 132 15q56 0 110 -44v-14q-44 -88 -44 -161h7q-20 -37 -29 -220q25 -217 51 -293l-7 -44q22 -47 102 -351q44 -103 103 -168h7q91 69 132 249q73 135 110 585q51 454 80 454l59 36q28 -14 80 -14l37 7q24 -15 44 -15h29l7 -51v-95 q0 -16 8 -29q-22 -60 -22 -103h7l-7 -14v-44q0 -37 -37 -110l7 -44q-14 -52 -21 -110q7 -39 7 -65q-41 -330 -73 -330v-22q7 0 22 -29q-35 -202 -132 -293q0 -123 -242 -153q-39 0 -109 -37q-286 136 -286 234q-175 330 -175 593q-12 0 -30 190v110q0 16 -7 29z" />
<glyph unicode="v" horiz-adv-x="1299" d="M51 1298v7q0 69 134 104q0 16 112 30q20 19 74 22h22q119 -14 119 -126q-74 -27 -74 -104q0 -132 119 -357q15 -67 52 -134l-7 -15q0 -60 52 -171h15q0 14 111 409q97 357 97 513l22 15h15q335 -39 335 -141q0 -18 -104 -134q-67 -110 -82 -201q-37 -74 -45 -134 q-22 0 -22 -22q7 -15 7 -23q-74 -220 -74 -253h7q-29 -203 -133 -483q-43 0 -67 -90q-8 0 -8 -7q-43 0 -89 97q-86 0 -127 171q-108 166 -215 461q-87 142 -194 521q-52 31 -52 45z" />
<glyph unicode="w" horiz-adv-x="1798" d="M2 1311v15q11 26 136 68h99q7 0 60 15h53q92 -8 144 -75q16 -25 16 -38q-24 -26 -99 -76l-15 -23v-15q0 -82 38 -151l-8 -16v-53q41 0 121 -470v-61h23q15 49 15 68v76q52 342 76 342q76 8 76 15l15 -7h106q109 0 152 -91l-7 -39q0 -48 23 -152v-98h37q0 25 167 440 l136 561h160q40 30 68 30h15q21 -34 182 -114l7 -15v-7q0 -87 -151 -99q-76 -33 -76 -151l-68 -152v-7q0 -8 7 -8q-30 -53 -98 -304q-91 -201 -167 -523q-111 -128 -129 -128q-7 -69 -30 -69h-23l-68 61l-30 -8q-59 0 -175 387q-15 68 -31 68h-7q-24 -283 -99 -311 q-15 -1 -15 -15v-22q0 -19 15 -69q-83 -98 -83 -151v-30q-7 0 -23 -8q-49 0 -98 121q-58 0 -91 205q-58 159 -151 477q-91 261 -167 531z" />
<glyph unicode="x" horiz-adv-x="1385" d="M32 111q18 13 206 378q159 212 159 241q-141 193 -255 468q-27 14 -27 41q78 79 282 145q117 0 117 -69v-7q-49 -80 -49 -124q0 -65 111 -302h6q31 0 110 233q78 97 138 338q56 34 90 34q0 -19 178 -41q61 -33 76 -83q0 -36 -138 -103q-158 -160 -185 -213 q-26 -1 -97 -124q-10 0 -27 -28q82 -104 82 -192q32 0 69 -104l131 -110q43 0 96 -117q37 -68 110 -82q26 -90 83 -90q39 -32 41 -48q0 -77 -199 -151q-30 0 -83 -55q-5 0 -41 7q-45 -14 -62 -14q-37 43 -220 365q-43 120 -131 268h-14q0 -26 -124 -241q-27 -54 -27 -144 q7 -21 14 -21l-7 -34v-21q41 -45 41 -76q0 -27 -172 -55l-199 42q0 12 -76 27q0 25 -7 62z" />
<glyph unicode="y" horiz-adv-x="1009" d="M2 1308q0 41 120 76q34 43 114 43q90 0 103 -81l5 -27l-27 -22v-44q0 -51 87 -255q0 -14 33 -130q0 -44 38 -44h5q22 42 22 54l-5 11q48 190 141 495q0 119 54 119h163q131 -16 131 -54q8 0 16 -16l-5 -27h5q0 -28 -60 -49q0 -10 -38 -27q-50 -49 -76 -142 q-36 -47 -60 -157q-34 -9 -98 -234q-8 0 -16 -22l6 -65l-55 -250q-65 -111 -65 -185q-11 -2 -11 -11v-32q0 -32 -60 -201q-32 -25 -65 -33q-109 0 -109 120v5q39 194 147 516q6 39 6 44q-55 0 -104 87q-44 39 -59 98q-88 94 -147 206q-79 177 -136 234z" />
<glyph unicode="z" horiz-adv-x="1389" d="M38 30v15q0 28 239 311q212 255 500 688q79 87 123 159v15q-15 29 -44 29q-185 -80 -217 -80q-80 0 -181 -72v-44q-15 0 -15 -7q-144 0 -144 72q-23 0 -58 131v79q-22 70 -22 109v14q17 0 58 22q151 -14 188 -14q64 7 80 7q99 -22 145 -22h58q76 0 238 15q138 0 138 -102 v-79q0 -17 7 -29q0 -18 -79 -102q-229 -247 -377 -499q-37 -40 -72 -123q-121 -150 -268 -312v-14h7q105 50 637 239q133 31 196 94q76 0 123 -210q36 -78 36 -232q-43 -64 -43 -80l-37 8q0 -11 -21 -22h-8q-35 45 -86 51v36h-22q-34 0 -51 22q-223 0 -485 -80v-7l-51 7h-43 q-31 -29 -58 -29q-13 0 -65 29q-141 -22 -254 -22q-72 9 -72 29z" />
<glyph unicode="{" d="M240 638v60q172 5 223 71t51 133v468q0 74 77 141.5t185 67.5h108v-50h-90q-61 0 -107 -33.5t-47 -91.5v-500q0 -83 -60.5 -158.5t-142.5 -76.5v-2q82 -1 143 -76t61 -158l-1 -500q1 -58 47 -91.5t107 -33.5h90v-50h-108q-108 0 -184.5 67.5t-77.5 141.5v468 q0 66 -51 132t-223 71z" />
<glyph unicode="|" d="M308 608q12 121 12 207v553q0 222 48 262l60 -14q108 28 156 28h12l12 -69v-97l-24 -41l12 -124q-36 -79 -36 -180q0 -103 12 -677q0 -36 -24 -166q24 -309 48 -455v-42q0 -97 -192 -207q-84 0 -84 801v55q0 123 -12 166z" />
<glyph unicode="}" d="M130 -192h90q61 0 107 33.5t47 91.5l-1 500q0 83 61 158t144 76v2q-83 1 -143.5 76.5t-60.5 158.5v500q-1 58 -47 91.5t-107 33.5h-90v50h108q108 0 185 -67.5t77 -141.5v-468q0 -67 51 -133t223 -71v-60q-172 -5 -223 -71t-51 -132v-468q-1 -74 -77.5 -141.5 t-184.5 -67.5h-108v50z" />
<glyph unicode="~" horiz-adv-x="1195" d="M99 590q0 172 332 294q12 9 77 15q40 0 224 -85l124 -31h31q27 0 185 93q23 -28 23 -54q-126 -186 -378 -186q-30 0 -162 47q-150 62 -170 62h-8q-70 0 -131 -116q-85 -39 -147 -39z" />
<glyph unicode="&#xa1;" horiz-adv-x="672" />
<glyph unicode="&#xa2;" horiz-adv-x="1139" />
<glyph unicode="&#xa3;" />
<glyph unicode="&#xa4;" />
<glyph unicode="&#xa5;" horiz-adv-x="1262" />
<glyph unicode="&#xa6;" d="M421 508q8 60 72 60h72q17 0 36 -36v-852q0 -69 -84 -96q-84 0 -84 696v60q0 66 -12 168zM448 848v804q19 55 125 55h41l14 -69v-97l-28 -42l14 -125q-41 -66 -41 -208v-305l14 -27l-42 -28h-55q-20 0 -42 42z" />
<glyph unicode="&#xa7;" />
<glyph unicode="&#xa8;" horiz-adv-x="1024" />
<glyph unicode="&#xa9;" horiz-adv-x="1601" d="M107 610q134 828 588 828q35 24 348 48q93 -12 216 -156q228 -295 228 -660q0 -43 -12 -108q0 -12 12 -12q0 -336 -300 -516q-81 -84 -204 -84q-576 66 -576 132q-300 277 -300 528zM227 538l60 -24l-12 -84v-48q167 -324 480 -324q191 -12 228 -12q384 187 384 456 q10 0 24 276q-79 404 -168 480q-122 132 -192 132q-208 0 -492 -84q-146 0 -312 -540v-228zM395 826q133 276 252 276q0 12 144 48q265 0 372 -360v-48q-18 -48 -36 -48h-48q-77 182 -324 276h-24q-84 -27 -84 -108l36 -24q-36 -81 -36 -132v-48q0 -208 228 -324 q63 0 108 -12q21 12 48 12q36 -44 36 -84v-12q-15 -45 -144 -84q-201 29 -312 132q-216 240 -216 540z" />
<glyph unicode="&#xaa;" horiz-adv-x="648" />
<glyph unicode="&#xab;" horiz-adv-x="944" />
<glyph unicode="&#xac;" />
<glyph unicode="&#xad;" horiz-adv-x="670" d="M31 570v5q52 25 359 56h107q134 0 134 -97q5 0 5 -21v-10q0 -24 -139 -46q0 -15 -205 -31q-63 29 -199 41q-62 80 -62 103z" />
<glyph unicode="&#xae;" horiz-adv-x="1500" d="M102 738q0 604 540 768l24 -12h132q204 0 384 -216q228 -416 228 -696q0 -75 -96 -348q0 -123 -348 -276l-72 -12h-144q-422 0 -612 516q-36 214 -36 276zM246 738q0 -558 360 -672h60q404 0 552 312q0 22 24 132q0 486 -276 792q-167 84 -276 84q-240 -67 -240 -168 q297 -66 384 -168q0 -21 144 -36l12 -24q0 -70 -132 -204v-12q14 -76 216 -348l12 -60h-48q-87 0 -288 312h-24q-27 -27 -144 -48v-12q12 -105 12 -120q-24 -180 -60 -180q-78 0 -120 624v216h-24q-120 -141 -120 -324q-16 0 -24 -96zM558 810l12 -60h24q168 135 168 180 q-142 120 -192 120h-12v-240z" />
<glyph unicode="&#xaf;" horiz-adv-x="670" />
<glyph unicode="&#xb0;" horiz-adv-x="674" />
<glyph unicode="&#xb1;" />
<glyph unicode="&#xb2;" />
<glyph unicode="&#xb3;" />
<glyph unicode="&#xb4;" horiz-adv-x="1024" d="M316 1078l291 297q35 35 55.5 47t40.5 12q33 0 53.5 -20t20.5 -51q0 -22 -15.5 -42t-46.5 -40l-330 -203h-69z" />
<glyph unicode="&#xb5;" horiz-adv-x="1180" />
<glyph unicode="&#xb6;" horiz-adv-x="1024" />
<glyph unicode="&#xb7;" horiz-adv-x="508" />
<glyph unicode="&#xb8;" horiz-adv-x="1024" />
<glyph unicode="&#xb9;" />
<glyph unicode="&#xba;" horiz-adv-x="718" />
<glyph unicode="&#xbb;" horiz-adv-x="944" />
<glyph unicode="&#xbc;" horiz-adv-x="1708" />
<glyph unicode="&#xbd;" horiz-adv-x="1964" />
<glyph unicode="&#xbe;" horiz-adv-x="1708" />
<glyph unicode="&#xbf;" horiz-adv-x="748" />
<glyph unicode="&#xc0;" horiz-adv-x="1540" />
<glyph unicode="&#xc1;" horiz-adv-x="1540" />
<glyph unicode="&#xc2;" horiz-adv-x="1540" />
<glyph unicode="&#xc3;" horiz-adv-x="1540" />
<glyph unicode="&#xc4;" horiz-adv-x="1540" />
<glyph unicode="&#xc5;" horiz-adv-x="1540" />
<glyph unicode="&#xc6;" horiz-adv-x="2118" />
<glyph unicode="&#xc7;" horiz-adv-x="1399" />
<glyph unicode="&#xc8;" horiz-adv-x="1151" />
<glyph unicode="&#xc9;" horiz-adv-x="1151" />
<glyph unicode="&#xca;" horiz-adv-x="1151" />
<glyph unicode="&#xcb;" horiz-adv-x="1151" />
<glyph unicode="&#xcc;" horiz-adv-x="657" />
<glyph unicode="&#xcd;" horiz-adv-x="657" />
<glyph unicode="&#xce;" horiz-adv-x="657" />
<glyph unicode="&#xcf;" horiz-adv-x="657" />
<glyph unicode="&#xd0;" horiz-adv-x="1518" />
<glyph unicode="&#xd1;" horiz-adv-x="1554" />
<glyph unicode="&#xd2;" horiz-adv-x="1614" />
<glyph unicode="&#xd3;" horiz-adv-x="1614" />
<glyph unicode="&#xd4;" horiz-adv-x="1614" />
<glyph unicode="&#xd5;" horiz-adv-x="1614" />
<glyph unicode="&#xd6;" horiz-adv-x="1614" />
<glyph unicode="&#xd7;" d="M104 888q0 83 110 192h9q46 0 83 -82q59 -35 155 -202l19 -9h18q95 79 165 220q30 18 46 18q128 -29 128 -101q0 -21 -128 -64q-138 -117 -138 -156v-9q211 -63 330 -146q-9 -113 -55 -239h-27q-24 4 -138 156q-163 183 -174 183q-129 -147 -174 -247q-15 0 -110 -9 q-82 9 -82 37q88 124 247 256q9 18 9 28q-12 0 -293 174z" />
<glyph unicode="&#xd8;" horiz-adv-x="1614" />
<glyph unicode="&#xd9;" horiz-adv-x="1501" />
<glyph unicode="&#xda;" horiz-adv-x="1501" />
<glyph unicode="&#xdb;" horiz-adv-x="1501" />
<glyph unicode="&#xdc;" horiz-adv-x="1501" />
<glyph unicode="&#xdd;" horiz-adv-x="1233" />
<glyph unicode="&#xde;" horiz-adv-x="1120" />
<glyph unicode="&#xdf;" horiz-adv-x="1251" />
<glyph unicode="&#xe0;" horiz-adv-x="922" />
<glyph unicode="&#xe1;" horiz-adv-x="922" />
<glyph unicode="&#xe2;" horiz-adv-x="922" />
<glyph unicode="&#xe3;" horiz-adv-x="922" />
<glyph unicode="&#xe4;" horiz-adv-x="922" />
<glyph unicode="&#xe5;" horiz-adv-x="922" />
<glyph unicode="&#xe6;" horiz-adv-x="1454" />
<glyph unicode="&#xe7;" horiz-adv-x="905" />
<glyph unicode="&#xe8;" horiz-adv-x="909" />
<glyph unicode="&#xe9;" horiz-adv-x="909" />
<glyph unicode="&#xea;" horiz-adv-x="909" />
<glyph unicode="&#xeb;" horiz-adv-x="909" />
<glyph unicode="&#xec;" horiz-adv-x="514" />
<glyph unicode="&#xed;" horiz-adv-x="514" />
<glyph unicode="&#xee;" horiz-adv-x="514" />
<glyph unicode="&#xef;" horiz-adv-x="514" />
<glyph unicode="&#xf0;" horiz-adv-x="1139" />
<glyph unicode="&#xf1;" horiz-adv-x="1108" />
<glyph unicode="&#xf2;" horiz-adv-x="1010" />
<glyph unicode="&#xf3;" horiz-adv-x="1010" />
<glyph unicode="&#xf4;" horiz-adv-x="1010" />
<glyph unicode="&#xf5;" horiz-adv-x="1010" />
<glyph unicode="&#xf6;" horiz-adv-x="1010" />
<glyph unicode="&#xf7;" horiz-adv-x="1184" d="M99 709q0 84 696 84h60q66 0 168 12q60 -7 60 -72v-72q0 -17 -36 -36h-852q-69 0 -96 84zM476 478q27 33 110 55q87 0 138 -65v-18q-36 -93 -147 -202h-18q-83 59 -83 230zM510 1134q27 33 110 55q87 0 138 -65v-18q-36 -93 -147 -202h-18q-83 59 -83 230z" />
<glyph unicode="&#xf8;" horiz-adv-x="1010" />
<glyph unicode="&#xf9;" horiz-adv-x="1059" />
<glyph unicode="&#xfa;" horiz-adv-x="1059" />
<glyph unicode="&#xfb;" horiz-adv-x="1059" />
<glyph unicode="&#xfc;" horiz-adv-x="1059" />
<glyph unicode="&#xfd;" horiz-adv-x="868" />
<glyph unicode="&#xfe;" horiz-adv-x="1010" />
<glyph unicode="&#xff;" horiz-adv-x="868" />
<glyph unicode="&#x2c6;" horiz-adv-x="1024" />
<glyph unicode="&#x2dc;" horiz-adv-x="1024" />
<glyph unicode="&#x2000;" horiz-adv-x="891" />
<glyph unicode="&#x2001;" horiz-adv-x="1782" />
<glyph unicode="&#x2002;" horiz-adv-x="891" />
<glyph unicode="&#x2003;" horiz-adv-x="1782" />
<glyph unicode="&#x2004;" horiz-adv-x="594" />
<glyph unicode="&#x2005;" horiz-adv-x="445" />
<glyph unicode="&#x2006;" horiz-adv-x="297" />
<glyph unicode="&#x2007;" horiz-adv-x="297" />
<glyph unicode="&#x2008;" horiz-adv-x="222" />
<glyph unicode="&#x2009;" horiz-adv-x="356" />
<glyph unicode="&#x200a;" horiz-adv-x="99" />
<glyph unicode="&#x2010;" horiz-adv-x="670" d="M31 570v5q52 25 359 56h107q134 0 134 -97q5 0 5 -21v-10q0 -24 -139 -46q0 -15 -205 -31q-63 29 -199 41q-62 80 -62 103z" />
<glyph unicode="&#x2011;" horiz-adv-x="670" d="M31 570v5q52 25 359 56h107q134 0 134 -97q5 0 5 -21v-10q0 -24 -139 -46q0 -15 -205 -31q-63 29 -199 41q-62 80 -62 103z" />
<glyph unicode="&#x2012;" horiz-adv-x="670" d="M31 570v5q52 25 359 56h107q134 0 134 -97q5 0 5 -21v-10q0 -24 -139 -46q0 -15 -205 -31q-63 29 -199 41q-62 80 -62 103z" />
<glyph unicode="&#x2013;" horiz-adv-x="1325" d="M86 517v24q131 24 408 24h60q672 0 672 -96v-24l-24 12h-348q-204 -4 -204 -24l-24 12h-36l-384 -48q-40 0 -120 120z" />
<glyph unicode="&#x2014;" horiz-adv-x="2048" d="M0 419v120h2048v-120h-2048z" />
<glyph unicode="&#x2018;" horiz-adv-x="557" d="M186 1233q0 109 71 226.5t139 117.5v-43q-73 -43 -87 -190q0 -119 129 -161v-42l-119 -125q-44 0 -88.5 65.5t-44.5 151.5z" />
<glyph unicode="&#x2019;" horiz-adv-x="557" d="M119 1410v42l119 125q44 0 88.5 -65.5t44.5 -151.5q0 -109 -71 -226.5t-139 -117.5v43q73 43 87 190q0 119 -129 161z" />
<glyph unicode="&#x201a;" horiz-adv-x="557" d="M119 114v42l119 125q44 0 88.5 -65.5t44.5 -151.5q0 -109 -71 -226.5t-139 -117.5v43q73 43 87 190q0 119 -129 161z" />
<glyph unicode="&#x201c;" horiz-adv-x="910" d="M186 1233q0 109 71 226.5t139 117.5v-43q-73 -43 -87 -190q0 -119 129 -161v-42l-119 -125q-44 0 -88.5 65.5t-44.5 151.5zM539 1233q0 109 71 226.5t139 117.5v-43q-73 -43 -87 -190q0 -119 129 -161v-42l-119 -125q-44 0 -88.5 65.5t-44.5 151.5z" />
<glyph unicode="&#x201d;" horiz-adv-x="910" d="M119 1410v42l119 125q44 0 88.5 -65.5t44.5 -151.5q0 -109 -71 -226.5t-139 -117.5v43q73 43 87 190q0 119 -129 161zM472 1410v42l119 125q44 0 88.5 -65.5t44.5 -151.5q0 -109 -71 -226.5t-139 -117.5v43q73 43 87 190q0 119 -129 161z" />
<glyph unicode="&#x201e;" horiz-adv-x="910" d="M119 114v42l119 125q44 0 88.5 -65.5t44.5 -151.5q0 -109 -71 -226.5t-139 -117.5v43q73 43 87 190q0 119 -129 161zM472 114v42l119 125q44 0 88.5 -65.5t44.5 -151.5q0 -109 -71 -226.5t-139 -117.5v43q73 43 87 190q0 119 -129 161z" />
<glyph unicode="&#x2022;" horiz-adv-x="1024" d="M216 718q0 123 87 209t210 86q122 0 208.5 -86.5t86.5 -208.5t-87.5 -209.5t-209.5 -87.5q-123 0 -209 87t-86 210z" />
<glyph unicode="&#x2026;" horiz-adv-x="2048" />
<glyph unicode="&#x202f;" horiz-adv-x="356" />
<glyph unicode="&#x2039;" horiz-adv-x="631" />
<glyph unicode="&#x203a;" horiz-adv-x="631" />
<glyph unicode="&#x205f;" horiz-adv-x="445" />
<glyph unicode="&#x20ac;" />
<glyph unicode="&#x2122;" horiz-adv-x="1497" />
<glyph unicode="&#x25fc;" horiz-adv-x="1485" d="M0 0v1485h1485v-1485h-1485z" />
</font>
</defs>
</svg>
